<svg width="139" height="24" viewBox="0 0 139 24" fill="none" xmlns="http://www.w3.org/2000/svg">
	<path fill-rule="evenodd" clip-rule="evenodd" d="M1.70872 1.68413C0 3.36827 0 6.07885 0 11.5V12.5C0 17.9212 0 20.6318 1.70872 22.3158C3.41744 24 6.16759 24 11.6679 24H12.6825C18.1828 24 20.9329 24 22.6416 22.3158C24.3504 20.6318 24.3504 17.9212 24.3504 12.5V11.5C24.3504 6.07885 24.3504 3.36827 22.6416 1.68413C20.9329 0 18.1828 0 12.6825 0H11.6679C6.16759 0 3.41744 0 1.70872 1.68413ZM4.81939 7.5H6.59535C7.04923 7.5 7.21998 7.69575 7.39018 8.18035C8.25878 10.6736 9.7233 12.8525 10.3254 12.8525C10.5511 12.8525 10.6547 12.75 10.6547 12.185V9.6079C10.6139 8.87435 10.3539 8.5571 10.1613 8.32215C10.0423 8.177 9.94905 8.0633 9.94905 7.90225C9.94905 7.7065 10.1188 7.5 10.401 7.5H13.1918C13.5681 7.5 13.6992 7.6983 13.6992 8.1433V11.6103C13.6992 11.981 13.8626 12.1108 13.9754 12.1108C14.2012 12.1108 14.3894 11.981 14.8033 11.5731C16.0828 10.1641 16.9858 7.9949 16.9858 7.9949C17.0988 7.7354 17.307 7.5 17.7585 7.5H19.5345C20.0715 7.5 20.1844 7.77245 20.0715 8.1433C19.8457 9.16295 17.682 12.1664 17.682 12.1664C17.4939 12.463 17.4186 12.6114 17.682 12.9451C17.7748 13.0731 17.9727 13.2641 18.1992 13.4827C18.4321 13.7075 18.6951 13.9614 18.905 14.2058C19.6679 15.0515 20.2428 15.765 20.403 16.2567C20.5493 16.75 20.2956 17 19.7882 17H18.0122C17.5365 17 17.297 16.7374 16.7794 16.1701C16.56 15.9296 16.2907 15.6343 15.9322 15.2811C14.8786 14.28 14.427 14.1502 14.1636 14.1502C13.8061 14.1502 13.6992 14.25 13.6992 14.75V16.3194C13.6992 16.75 13.5596 17 12.4307 17C10.5491 17 8.48149 15.8744 7.01392 13.7979C4.81258 10.7574 4.21048 8.45845 4.21048 7.9949C4.21048 7.7354 4.31197 7.5 4.81939 7.5Z" fill="#3E88E1" />
	<path d="M41.5441 11.7895C42.5097 11.3453 43.132 10.6051 43.132 9.46295C43.132 7.72865 41.5226 6.50195 39.2051 6.50195H33.8618V17.5H39.4411C41.8445 17.5 43.5183 16.2098 43.5183 14.4544C43.5183 13.1219 42.6385 12.1279 41.5441 11.7895ZM36.3296 8.5112H39.2051C40.0634 8.5112 40.6643 9.0188 40.6643 9.71675C40.6643 10.4147 40.0634 10.9012 39.2051 10.9012H36.3296V8.5112ZM39.4411 15.4907H36.3296V12.8047H39.4411C40.4067 12.8047 41.0505 13.3546 41.0505 14.1583C41.0505 14.962 40.4067 15.4907 39.4411 15.4907Z" fill="#FFFFFF" />
	<path d="M52.6965 17.5H55.9366L50.8078 11.7895L55.5074 6.50195H52.5676L48.8337 10.7743H48.2329V6.50195H45.7651V17.5H48.2329V13.1219H48.8337L52.6965 17.5Z" fill="#FFFFFF" />
	<path d="M62.2349 17.7115C65.7327 17.7115 68.2007 15.3427 68.2007 12.001C68.2007 8.65933 65.7327 6.29053 62.2349 6.29053C58.737 6.29053 56.2695 8.65933 56.2695 12.001C56.2695 15.3427 58.737 17.7115 62.2349 17.7115ZM62.2349 15.4908C60.2178 15.4908 58.8446 14.0737 58.8446 12.001C58.8446 9.92833 60.2178 8.51128 62.2349 8.51128C64.2524 8.51128 65.6257 9.92833 65.6257 12.001C65.6257 14.0737 64.2524 15.4908 62.2349 15.4908Z" fill="#FFFFFF" />
	<path d="M77.8136 6.50195V10.8377H72.8137V6.50195H70.3462V17.5H72.8137V13.0585H77.8136V17.5H80.2816V6.50195H77.8136Z" fill="#FFFFFF" />
	<path d="M85.8557 17.5H88.3238V8.7227H92.1863V6.50195H81.9932V8.7227H85.8557V17.5Z" fill="#FFFFFF" />
	<path d="M98.0306 6.29053C95.8634 6.29053 93.9535 7.39033 93.3954 9.29383L95.6702 9.67453C96.0136 8.99773 96.7862 8.36323 97.9018 8.36323C99.2537 8.36323 100.048 9.31498 100.155 10.7532H97.7516C94.4684 10.7532 92.8374 12.1702 92.8374 14.2006C92.8374 16.2522 94.4471 17.7115 96.7218 17.7115C98.5455 17.7115 99.7686 16.6752 100.305 15.7657L100.82 17.5H102.645V11.3242C102.645 8.13058 100.885 6.29053 98.0306 6.29053ZM97.3011 15.66C96.0993 15.66 95.3267 15.0466 95.3267 14.0949C95.3267 13.2489 95.9492 12.6567 97.8373 12.6567H100.176C100.176 14.4544 99.0178 15.66 97.3011 15.66Z" fill="#FFFFFF" />
	<path d="M112.253 17.5H115.493L110.364 11.7895L115.063 6.50195H112.124L108.39 10.7743H107.789V6.50195H105.321V17.5H107.789V13.1219H108.39L112.253 17.5Z" fill="#FFFFFF" />
	<path d="M119.678 17.5H122.147V8.7227H126.009V6.50195H115.816V8.7227H119.678V17.5Z" fill="#FFFFFF" />
	<path d="M138.248 11.8741C138.248 8.70163 135.845 6.29053 132.455 6.29053C129.064 6.29053 126.661 8.68048 126.661 12.001C126.661 15.3216 129.064 17.7115 132.455 17.7115C134.772 17.7115 136.961 16.6329 137.797 14.539L135.48 14.1583C134.943 14.9409 133.914 15.4908 132.605 15.4908C130.716 15.4908 129.472 14.3487 129.236 12.6567H138.205C138.227 12.424 138.248 12.1702 138.248 11.8741ZM132.455 8.40553C133.999 8.40553 135.158 9.37843 135.566 10.7532H129.386C129.793 9.33613 130.952 8.40553 132.455 8.40553Z" fill="#FFFFFF" />
</svg>