<svg width="25" height="24" viewBox="0 0 25 24" fill="none" xmlns="http://www.w3.org/2000/svg" class='mobile'>
	<path fill-rule="evenodd" clip-rule="evenodd" d="M1.70872 1.68413C0 3.36827 0 6.07885 0 11.5V12.5C0 17.9212 0 20.6318 1.70872 22.3158C3.41744 24 6.16759 24 11.6679 24H12.6825C18.1828 24 20.9329 24 22.6416 22.3158C24.3504 20.6318 24.3504 17.9212 24.3504 12.5V11.5C24.3504 6.07885 24.3504 3.36827 22.6416 1.68413C20.9329 0 18.1828 0 12.6825 0H11.6679C6.16759 0 3.41744 0 1.70872 1.68413ZM4.81939 7.5H6.59535C7.04923 7.5 7.21998 7.69575 7.39018 8.18035C8.25878 10.6736 9.7233 12.8525 10.3254 12.8525C10.5511 12.8525 10.6547 12.75 10.6547 12.185V9.6079C10.6139 8.87435 10.3539 8.5571 10.1613 8.32215C10.0423 8.177 9.94905 8.0633 9.94905 7.90225C9.94905 7.7065 10.1188 7.5 10.401 7.5H13.1918C13.5681 7.5 13.6992 7.6983 13.6992 8.1433V11.6103C13.6992 11.981 13.8626 12.1108 13.9754 12.1108C14.2012 12.1108 14.3894 11.981 14.8033 11.5731C16.0828 10.1641 16.9858 7.9949 16.9858 7.9949C17.0988 7.7354 17.307 7.5 17.7585 7.5H19.5345C20.0715 7.5 20.1844 7.77245 20.0715 8.1433C19.8457 9.16295 17.682 12.1664 17.682 12.1664C17.4939 12.463 17.4186 12.6114 17.682 12.9451C17.7748 13.0731 17.9727 13.2641 18.1992 13.4827C18.4321 13.7075 18.6951 13.9614 18.905 14.2058C19.6679 15.0515 20.2428 15.765 20.403 16.2567C20.5493 16.75 20.2956 17 19.7882 17H18.0122C17.5365 17 17.297 16.7374 16.7794 16.1701C16.56 15.9296 16.2907 15.6343 15.9322 15.2811C14.8786 14.28 14.427 14.1502 14.1636 14.1502C13.8061 14.1502 13.6992 14.25 13.6992 14.75V16.3194C13.6992 16.75 13.5596 17 12.4307 17C10.5491 17 8.48149 15.8744 7.01392 13.7979C4.81258 10.7574 4.21048 8.45845 4.21048 7.9949C4.21048 7.7354 4.31197 7.5 4.81939 7.5Z" fill="#3E88E1" />
</svg>