<svg width="22" height="22" viewBox="0 0 22 22" fill="none" xmlns="http://www.w3.org/2000/svg">
<path d="M11 13C11 11 12.576 10.6653 13.1187 10.124C13.6631 9.58085 14 8.82977 14 8C14 6.34315 12.6569 5 11 5C10.1041 5 9.29991 5.39273 8.7502 6.01542C8.49603 6.30334 8.29626 6.64044 8.16699 7.01061" stroke="black" stroke-linecap="round"/>
<path fill-rule="evenodd" clip-rule="evenodd" d="M11 17C11.5523 17 12 16.5523 12 16C12 15.4477 11.5523 15 11 15C10.4477 15 10 15.4477 10 16C10 16.5523 10.4477 17 11 17Z" fill="black"/>
<path fill-rule="evenodd" clip-rule="evenodd" d="M11 21C16.5228 21 21 16.5228 21 11C21 5.47715 16.5228 1 11 1C5.47715 1 1 5.47715 1 11C1 16.5228 5.47715 21 11 21Z" stroke="black"/>
</svg>
